<svg xmlns="http://www.w3.org/2000/svg" width="104.781" height="83.615"><defs><style>.b{fill:#162b75}.c{fill:#fff}</style></defs><path d="M732.078 161.666h-54.849V125.1l27.424-21.939 27.425 21.939Z" transform="translate(-651.633 -96.333)" style="fill:#d4d2d2"/><path class="b" d="M39.5 32.481h.073a5.558 5.558 0 0 0-5.558 5.557v32.836h10.97V38.039a5.5 5.5 0 0 0-5.433-5.558Z"/><path class="c" d="M52.672 33.529h9.021v16h-9.021Z"/><path class="b" d="M62.264 50.103H52.101V32.958h10.163Zm-9.02-1.145h7.878V34.101h-7.878Z"/><path class="c" d="M61.692 33.529h9.02v16h-9.02Z"/><path class="b" d="M71.284 50.103H61.121V32.958h10.163Zm-9.021-1.143h7.879V34.101h-7.878Z"/><path d="m574.961 290.77 14.087 7.325.17-.54a7.32 7.32 0 0 1 10.362-4.726l18.669 9.335 25.6-7.313H660.3v18.283h-3.657l-42.05 10.966-49.364-27.424a6.66 6.66 0 0 1 9.732-5.909Z" transform="translate(-565.229 -240.488)" style="fill:#f7be9d"/><path class="b" d="m97.115 79.734-13.955-4.38 7.666-24.421 13.955 4.381Z"/><path d="M685.12 332.369a1.828 1.828 0 0 0 .846-3.451l-21.887-11.381a1.828 1.828 0 1 0-1.717 3.228l.03.016 21.888 11.381a1.821 1.821 0 0 0 .841.207Z" transform="translate(-639.414 -261.551)" style="fill:#eea884"/><path d="M659.366 103.845a3.428 3.428 0 0 1-2.177-6.077l28.862-23.7a3.428 3.428 0 0 1 4.349 0l28.676 23.51a3.428 3.428 0 1 1-4.347 5.3l-26.5-21.727-26.689 21.915a3.414 3.414 0 0 1-2.174.779Z" transform="translate(-635.206 -73.286)" style="fill:#f26522"/><path class="c" d="M96.751 64.766a1.143 1.143 0 0 1-1.087-1.5l1.352-4.162a1.143 1.143 0 1 1 2.174.706l-1.352 4.162a1.144 1.144 0 0 1-1.087.794Z"/></svg>
